<mxfile host="app.diagrams.net" modified="2021-10-08T06:27:09.125Z" agent="5.0 (Macintosh; Intel Mac OS X 10_15_7) AppleWebKit/537.36 (KHTML, like Gecko) Chrome/90.0.4430.212 Safari/537.36" etag="xjmtCrFmaxq5AKiMWCgi" version="15.3.7" type="github">
  <diagram id="q9U_5szceUSrqNyL1FPr" name="Page-1">
    <mxGraphModel dx="586" dy="1641" grid="1" gridSize="10" guides="1" tooltips="1" connect="1" arrows="1" fold="1" page="1" pageScale="1" pageWidth="827" pageHeight="1169" math="0" shadow="0">
      <root>
        <mxCell id="0" />
        <mxCell id="1" parent="0" />
        <mxCell id="ximAdDAw7g_WnFF4MYwt-1" value="BLE Client" style="rounded=0;whiteSpace=wrap;html=1;" parent="1" vertex="1">
          <mxGeometry x="170" y="290" width="120" height="30" as="geometry" />
        </mxCell>
        <mxCell id="ximAdDAw7g_WnFF4MYwt-2" value="BLE Server" style="rounded=0;whiteSpace=wrap;html=1;" parent="1" vertex="1">
          <mxGeometry x="414" y="290" width="120" height="30" as="geometry" />
        </mxCell>
        <mxCell id="ximAdDAw7g_WnFF4MYwt-3" value="" style="endArrow=none;dashed=1;html=1;dashPattern=1 3;strokeWidth=2;startArrow=none;" parent="1" source="ximAdDAw7g_WnFF4MYwt-7" target="ximAdDAw7g_WnFF4MYwt-1" edge="1">
          <mxGeometry width="50" height="50" relative="1" as="geometry">
            <mxPoint x="230" y="860" as="sourcePoint" />
            <mxPoint x="330" y="810" as="targetPoint" />
          </mxGeometry>
        </mxCell>
        <mxCell id="ximAdDAw7g_WnFF4MYwt-4" value="" style="endArrow=none;dashed=1;html=1;entryX=0.5;entryY=1;entryDx=0;entryDy=0;" parent="1" target="ximAdDAw7g_WnFF4MYwt-2" edge="1">
          <mxGeometry width="50" height="50" relative="1" as="geometry">
            <mxPoint x="474" y="870" as="sourcePoint" />
            <mxPoint x="330" y="810" as="targetPoint" />
          </mxGeometry>
        </mxCell>
        <mxCell id="ximAdDAw7g_WnFF4MYwt-5" value="" style="endArrow=classic;html=1;" parent="1" edge="1">
          <mxGeometry width="50" height="50" relative="1" as="geometry">
            <mxPoint x="230" y="350" as="sourcePoint" />
            <mxPoint x="230" y="380" as="targetPoint" />
            <Array as="points">
              <mxPoint x="380" y="350" />
              <mxPoint x="380" y="380" />
            </Array>
          </mxGeometry>
        </mxCell>
        <mxCell id="ximAdDAw7g_WnFF4MYwt-6" value="扫描蓝牙设备" style="text;html=1;strokeColor=none;fillColor=none;align=center;verticalAlign=middle;whiteSpace=wrap;rounded=0;" parent="1" vertex="1">
          <mxGeometry x="250" y="330" width="100" height="20" as="geometry" />
        </mxCell>
        <mxCell id="ximAdDAw7g_WnFF4MYwt-7" value="获取MAC地址" style="rounded=0;whiteSpace=wrap;html=1;" parent="1" vertex="1">
          <mxGeometry x="170" y="410" width="120" height="30" as="geometry" />
        </mxCell>
        <mxCell id="ximAdDAw7g_WnFF4MYwt-8" value="" style="endArrow=none;dashed=1;html=1;dashPattern=1 3;strokeWidth=2;" parent="1" target="ximAdDAw7g_WnFF4MYwt-7" edge="1">
          <mxGeometry width="50" height="50" relative="1" as="geometry">
            <mxPoint x="230" y="860" as="sourcePoint" />
            <mxPoint x="230" y="320" as="targetPoint" />
          </mxGeometry>
        </mxCell>
        <mxCell id="ximAdDAw7g_WnFF4MYwt-9" value="" style="endArrow=classic;html=1;" parent="1" edge="1">
          <mxGeometry width="50" height="50" relative="1" as="geometry">
            <mxPoint x="230" y="480" as="sourcePoint" />
            <mxPoint x="470" y="480" as="targetPoint" />
          </mxGeometry>
        </mxCell>
        <mxCell id="ximAdDAw7g_WnFF4MYwt-10" value="发送广播" style="rounded=0;whiteSpace=wrap;html=1;" parent="1" vertex="1">
          <mxGeometry x="414" y="350" width="120" height="30" as="geometry" />
        </mxCell>
        <mxCell id="ximAdDAw7g_WnFF4MYwt-12" value="" style="endArrow=classic;html=1;" parent="1" edge="1">
          <mxGeometry width="50" height="50" relative="1" as="geometry">
            <mxPoint x="470" y="520" as="sourcePoint" />
            <mxPoint x="230" y="520" as="targetPoint" />
          </mxGeometry>
        </mxCell>
        <mxCell id="ximAdDAw7g_WnFF4MYwt-13" value="连接成功" style="text;html=1;strokeColor=none;fillColor=none;align=center;verticalAlign=middle;whiteSpace=wrap;rounded=0;" parent="1" vertex="1">
          <mxGeometry x="310" y="500" width="70" height="20" as="geometry" />
        </mxCell>
        <mxCell id="ximAdDAw7g_WnFF4MYwt-14" value="connectGatt" style="text;html=1;strokeColor=none;fillColor=none;align=center;verticalAlign=middle;whiteSpace=wrap;rounded=0;" parent="1" vertex="1">
          <mxGeometry x="297.5" y="460" width="95" height="20" as="geometry" />
        </mxCell>
        <mxCell id="ximAdDAw7g_WnFF4MYwt-15" value="业务通信" style="rounded=0;whiteSpace=wrap;html=1;" parent="1" vertex="1">
          <mxGeometry x="170" y="540" width="120" height="30" as="geometry" />
        </mxCell>
        <mxCell id="ximAdDAw7g_WnFF4MYwt-16" value="" style="endArrow=classic;html=1;" parent="1" edge="1">
          <mxGeometry width="50" height="50" relative="1" as="geometry">
            <mxPoint x="230" y="600" as="sourcePoint" />
            <mxPoint x="470" y="600" as="targetPoint" />
          </mxGeometry>
        </mxCell>
        <mxCell id="ximAdDAw7g_WnFF4MYwt-17" value="" style="endArrow=classic;html=1;dashed=1;strokeWidth=1;" parent="1" edge="1">
          <mxGeometry width="50" height="50" relative="1" as="geometry">
            <mxPoint x="230" y="610" as="sourcePoint" />
            <mxPoint x="470" y="610" as="targetPoint" />
          </mxGeometry>
        </mxCell>
        <mxCell id="ximAdDAw7g_WnFF4MYwt-19" value="发送消息/拆包" style="text;html=1;strokeColor=none;fillColor=none;align=center;verticalAlign=middle;whiteSpace=wrap;rounded=0;" parent="1" vertex="1">
          <mxGeometry x="305" y="574" width="85" height="20" as="geometry" />
        </mxCell>
        <mxCell id="ximAdDAw7g_WnFF4MYwt-20" value="组包/协议解析" style="rounded=0;whiteSpace=wrap;html=1;" parent="1" vertex="1">
          <mxGeometry x="414" y="630" width="120" height="30" as="geometry" />
        </mxCell>
        <mxCell id="ximAdDAw7g_WnFF4MYwt-21" value="" style="endArrow=classic;html=1;dashed=1;dashPattern=1 1;" parent="1" edge="1">
          <mxGeometry width="50" height="50" relative="1" as="geometry">
            <mxPoint x="470" y="680" as="sourcePoint" />
            <mxPoint x="290" y="680" as="targetPoint" />
          </mxGeometry>
        </mxCell>
        <mxCell id="ximAdDAw7g_WnFF4MYwt-22" value="返回Resp/拆包" style="text;html=1;strokeColor=none;fillColor=none;align=center;verticalAlign=middle;whiteSpace=wrap;rounded=0;" parent="1" vertex="1">
          <mxGeometry x="310" y="660" width="95" height="20" as="geometry" />
        </mxCell>
        <mxCell id="N2iIrVCfoFvzx7z3-stQ-1" value="" style="endArrow=classic;html=1;dashed=1;dashPattern=1 1;entryX=0;entryY=0.5;entryDx=0;entryDy=0;exitX=0;exitY=0.5;exitDx=0;exitDy=0;" edge="1" parent="1" source="N2iIrVCfoFvzx7z3-stQ-4" target="ximAdDAw7g_WnFF4MYwt-15">
          <mxGeometry width="50" height="50" relative="1" as="geometry">
            <mxPoint x="230" y="680" as="sourcePoint" />
            <mxPoint x="110" y="560" as="targetPoint" />
            <Array as="points">
              <mxPoint x="110" y="735" />
              <mxPoint x="110" y="555" />
            </Array>
          </mxGeometry>
        </mxCell>
        <mxCell id="N2iIrVCfoFvzx7z3-stQ-2" value="组包/业务数据解析" style="rounded=1;whiteSpace=wrap;html=1;" vertex="1" parent="1">
          <mxGeometry x="172.5" y="670" width="115" height="30" as="geometry" />
        </mxCell>
        <mxCell id="N2iIrVCfoFvzx7z3-stQ-4" value="其它通信" style="rounded=0;whiteSpace=wrap;html=1;" vertex="1" parent="1">
          <mxGeometry x="170" y="720" width="120" height="30" as="geometry" />
        </mxCell>
        <mxCell id="N2iIrVCfoFvzx7z3-stQ-5" value="" style="endArrow=classic;html=1;dashed=1;" edge="1" parent="1">
          <mxGeometry width="50" height="50" relative="1" as="geometry">
            <mxPoint x="480" y="690" as="sourcePoint" />
            <mxPoint x="290" y="690" as="targetPoint" />
          </mxGeometry>
        </mxCell>
      </root>
    </mxGraphModel>
  </diagram>
</mxfile>
